<svg xmlns="http://www.w3.org/2000/svg" width="218.376" height="90.65" viewBox="0 0 218.376 90.65"><path d="M2.18,136.2V129.59H5.165a2.554,2.554,0,0,1,1.534.334,1.418,1.418,0,0,1,.417,1.181v1a1.381,1.381,0,0,1-.212.815.945.945,0,0,1-.642.372,1.025,1.025,0,0,1,.661.4,1.725,1.725,0,0,1,.193.924v1.592H6.353v-1.361a1.505,1.505,0,0,0-.225-.963,1.169,1.169,0,0,0-.879-.25H2.905v2.574H2.18ZM5.017,130.3H2.905v2.645H5.017a1.893,1.893,0,0,0,1.078-.205A.879.879,0,0,0,6.353,132v-.77a.926.926,0,0,0-.244-.738,1.93,1.93,0,0,0-1.091-.2Z" transform="translate(-0.781 -46.399)" fill="#55565a"/><path d="M14.92,136.2V129.59h4.635v.7H15.645v2.163h3.794v.674H15.645v2.382h3.909v.693Z" transform="translate(-5.342 -46.399)" fill="#55565a"/><path d="M26.8,136.2V129.59h2.786a2.554,2.554,0,0,1,1.534.334,1.418,1.418,0,0,1,.417,1.181v1a1.488,1.488,0,0,1-.417,1.207,2.55,2.55,0,0,1-1.541.334H27.525v2.568H26.8Zm3.98-4.1v-.969a.8.8,0,0,0-.225-.655,1.773,1.773,0,0,0-.976-.18H27.532v2.645H29.58a1.718,1.718,0,0,0,.969-.18.793.793,0,0,0,.231-.655Z" transform="translate(-9.596 -46.399)" fill="#55565a"/><path d="M38.563,129.59H39.3v4.34a3.935,3.935,0,0,0,.071.892.85.85,0,0,0,.238.411.964.964,0,0,0,.424.225,3.723,3.723,0,0,0,.847.064h.693a3.715,3.715,0,0,0,.854-.064.964.964,0,0,0,.424-.225.841.841,0,0,0,.231-.4,4.072,4.072,0,0,0,.064-.9v-4.34h.738v4.429a2.469,2.469,0,0,1-.5,1.765,2.469,2.469,0,0,1-1.765.5h-.8a2.469,2.469,0,0,1-1.765-.5,2.469,2.469,0,0,1-.5-1.765V129.59Z" transform="translate(-13.803 -46.399)" fill="#55565a"/><path d="M52.1,136.2V129.59h4.635v.7H52.825v2.163h3.794v.674H52.825v2.382h3.909v.693Z" transform="translate(-18.654 -46.399)" fill="#55565a"/><path d="M63.7,134.012h.738v.122a3.192,3.192,0,0,0,.09.873.643.643,0,0,0,.3.4,1.424,1.424,0,0,0,.494.128c.225.026.68.039,1.374.039a4.272,4.272,0,0,0,.873-.071.878.878,0,0,0,.462-.238.577.577,0,0,0,.122-.3,3.392,3.392,0,0,0,.039-.578,1.781,1.781,0,0,0-.148-.924.806.806,0,0,0-.591-.225l-2.035-.16a1.856,1.856,0,0,1-1.265-.456,1.942,1.942,0,0,1-.353-1.3,3.08,3.08,0,0,1,.116-.931,1.328,1.328,0,0,1,.372-.584,1.252,1.252,0,0,1,.558-.25,7.17,7.17,0,0,1,1.271-.071h.238a7.216,7.216,0,0,1,1.432.1,1.6,1.6,0,0,1,.693.34.956.956,0,0,1,.282.456,2.442,2.442,0,0,1,.09.738v.2a.736.736,0,0,1-.006.122H68.1v-.167a2.487,2.487,0,0,0-.045-.559.553.553,0,0,0-.135-.289.916.916,0,0,0-.488-.193,10.025,10.025,0,0,0-1.342-.058,2.272,2.272,0,0,0-1.284.231,1.231,1.231,0,0,0-.263.924,1.291,1.291,0,0,0,.173.783.921.921,0,0,0,.661.257l2.08.173a1.645,1.645,0,0,1,1.143.449,1.929,1.929,0,0,1,.327,1.265,4.138,4.138,0,0,1-.083.976,1.226,1.226,0,0,1-.931.924,6.793,6.793,0,0,1-1.483.109H66.1a6.018,6.018,0,0,1-1.3-.1,1.566,1.566,0,0,1-.636-.321,1.214,1.214,0,0,1-.366-.578,3.122,3.122,0,0,1-.116-.924v-.321Z" transform="translate(-22.804 -46.36)" fill="#55565a"/><path d="M75.51,130.3v-.7h4.949v.7H78.347v5.912h-.732V130.3Z" transform="translate(-27.036 -46.403)" fill="#55565a"/><path d="M86.82,131.736a2.378,2.378,0,0,1,.526-1.765,2.683,2.683,0,0,1,1.862-.5h.835a2.727,2.727,0,0,1,1.868.494,2.394,2.394,0,0,1,.52,1.772v2.24a2.358,2.358,0,0,1-.526,1.765,2.694,2.694,0,0,1-1.862.5h-.835a2.694,2.694,0,0,1-1.862-.5,2.4,2.4,0,0,1-.526-1.765Zm3-1.579h-.411a4.376,4.376,0,0,0-.989.077,1.314,1.314,0,0,0-.5.25.913.913,0,0,0-.276.456,4.308,4.308,0,0,0-.077.982V133.8a4.2,4.2,0,0,0,.077.976.894.894,0,0,0,.276.449,1.19,1.19,0,0,0,.5.25,4.337,4.337,0,0,0,.989.077h.411a4.376,4.376,0,0,0,.989-.077,1.269,1.269,0,0,0,.5-.25.873.873,0,0,0,.27-.437,4.223,4.223,0,0,0,.077-.989v-1.881a4.309,4.309,0,0,0-.077-.982.913.913,0,0,0-.276-.456,1.155,1.155,0,0,0-.494-.244,4.874,4.874,0,0,0-.989-.071Z" transform="translate(-31.086 -46.356)" fill="#55565a"/><path d="M100.246,134.012h.738v.122a3.192,3.192,0,0,0,.09.873.643.643,0,0,0,.3.4,1.424,1.424,0,0,0,.494.128c.225.026.68.039,1.374.039a4.272,4.272,0,0,0,.873-.071.878.878,0,0,0,.462-.238.577.577,0,0,0,.122-.3,3.392,3.392,0,0,0,.039-.578,1.781,1.781,0,0,0-.148-.924.806.806,0,0,0-.591-.225l-2.035-.16a1.856,1.856,0,0,1-1.265-.456,1.942,1.942,0,0,1-.353-1.3,3.079,3.079,0,0,1,.116-.931,1.328,1.328,0,0,1,.372-.584,1.252,1.252,0,0,1,.558-.25,7.17,7.17,0,0,1,1.271-.071h.238a7.216,7.216,0,0,1,1.432.1,1.6,1.6,0,0,1,.693.34.956.956,0,0,1,.282.456,2.442,2.442,0,0,1,.09.738v.2a.736.736,0,0,1-.006.122h-.738v-.167a2.487,2.487,0,0,0-.045-.559.553.553,0,0,0-.135-.289.916.916,0,0,0-.488-.193,10.025,10.025,0,0,0-1.342-.058,2.272,2.272,0,0,0-1.284.231,1.231,1.231,0,0,0-.263.924,1.291,1.291,0,0,0,.173.783.921.921,0,0,0,.661.257l2.08.173a1.645,1.645,0,0,1,1.143.449,1.929,1.929,0,0,1,.327,1.265,4.137,4.137,0,0,1-.083.976,1.226,1.226,0,0,1-.931.924,6.792,6.792,0,0,1-1.483.109h-.327a6.018,6.018,0,0,1-1.3-.1,1.566,1.566,0,0,1-.636-.321,1.214,1.214,0,0,1-.366-.578,3.121,3.121,0,0,1-.116-.924v-.321Z" transform="translate(-35.891 -46.36)" fill="#55565a"/><path d="M120.13,137.007h-.61l2.343-7.537h.623Z" transform="translate(-42.794 -46.356)" fill="#55565a"/><path d="M135.31,136.2V129.59h4.635v.7h-3.909v2.163h3.794v.674h-3.794v2.382h3.909v.693Z" transform="translate(-48.447 -46.399)" fill="#55565a"/><path d="M146.88,131.736a2.378,2.378,0,0,1,.526-1.765,2.683,2.683,0,0,1,1.862-.5h.835a2.727,2.727,0,0,1,1.868.494,2.394,2.394,0,0,1,.52,1.772v2.24a4.33,4.33,0,0,1-.077.95,1.21,1.21,0,0,1-.257.514l.4.4-.481.494-.417-.424a1.026,1.026,0,0,1-.507.257,4.98,4.98,0,0,1-1.034.077h-.835a2.694,2.694,0,0,1-1.862-.5,2.4,2.4,0,0,1-.526-1.765v-2.24Zm4.84,2.215v-2.035a4.309,4.309,0,0,0-.077-.982.913.913,0,0,0-.276-.456,1.155,1.155,0,0,0-.494-.244,4.874,4.874,0,0,0-.989-.071h-.411a4.375,4.375,0,0,0-.989.077,1.315,1.315,0,0,0-.5.25.913.913,0,0,0-.276.456,4.309,4.309,0,0,0-.077.982V133.8a4.2,4.2,0,0,0,.077.976.894.894,0,0,0,.276.449,1.19,1.19,0,0,0,.5.25,4.336,4.336,0,0,0,.989.077h.571a7.453,7.453,0,0,0,.77-.026.907.907,0,0,0,.353-.1l-1.245-1.245.469-.475,1.258,1.245c.019-.122.039-.27.051-.443s.019-.36.019-.565Z" transform="translate(-52.59 -46.356)" fill="#55565a"/><path d="M160.493,129.59h.738v4.34a3.934,3.934,0,0,0,.071.892.85.85,0,0,0,.237.411.964.964,0,0,0,.424.225,3.723,3.723,0,0,0,.847.064h.693a3.715,3.715,0,0,0,.854-.064.964.964,0,0,0,.424-.225.841.841,0,0,0,.231-.4,4.07,4.07,0,0,0,.064-.9v-4.34h.738v4.429a1.883,1.883,0,0,1-2.266,2.266h-.8a1.883,1.883,0,0,1-2.266-2.266V129.59Z" transform="translate(-57.459 -46.399)" fill="#55565a"/><path d="M174.02,136.2V129.59h.738V136.2Z" transform="translate(-62.307 -46.399)" fill="#55565a"/><path d="M180.5,136.2V129.59h2.786a2.554,2.554,0,0,1,1.534.334,1.418,1.418,0,0,1,.417,1.181v1a1.488,1.488,0,0,1-.417,1.207,2.55,2.55,0,0,1-1.541.334h-2.054v2.568H180.5Zm3.974-4.1v-.969a.8.8,0,0,0-.225-.655,1.773,1.773,0,0,0-.976-.18h-2.048v2.645h2.048a1.718,1.718,0,0,0,.969-.18.793.793,0,0,0,.231-.655Z" transform="translate(-64.628 -46.399)" fill="#55565a"/><path d="M192.28,131.736a2.378,2.378,0,0,1,.526-1.765,2.683,2.683,0,0,1,1.862-.5h.835a2.727,2.727,0,0,1,1.868.494,2.394,2.394,0,0,1,.52,1.772v2.24a2.358,2.358,0,0,1-.526,1.765,2.694,2.694,0,0,1-1.862.5h-.835a2.694,2.694,0,0,1-1.862-.5,2.4,2.4,0,0,1-.526-1.765Zm3-1.579h-.411a4.376,4.376,0,0,0-.989.077,1.314,1.314,0,0,0-.5.25.913.913,0,0,0-.276.456,4.309,4.309,0,0,0-.077.982V133.8a4.2,4.2,0,0,0,.077.976.894.894,0,0,0,.276.449,1.19,1.19,0,0,0,.5.25,4.338,4.338,0,0,0,.989.077h.411a4.376,4.376,0,0,0,.989-.077,1.269,1.269,0,0,0,.5-.25.873.873,0,0,0,.27-.437,4.221,4.221,0,0,0,.077-.989v-1.881a4.308,4.308,0,0,0-.077-.982.913.913,0,0,0-.276-.456,1.155,1.155,0,0,0-.494-.244,4.874,4.874,0,0,0-.989-.071Z" transform="translate(-68.845 -46.356)" fill="#55565a"/><path d="M205.706,134.012h.738v.122a3.193,3.193,0,0,0,.09.873.643.643,0,0,0,.3.4,1.424,1.424,0,0,0,.494.128c.225.026.68.039,1.374.039a4.273,4.273,0,0,0,.873-.071.878.878,0,0,0,.462-.238.577.577,0,0,0,.122-.3,3.393,3.393,0,0,0,.039-.578,1.782,1.782,0,0,0-.148-.924.806.806,0,0,0-.591-.225l-2.035-.16a1.856,1.856,0,0,1-1.265-.456,1.942,1.942,0,0,1-.353-1.3,3.08,3.08,0,0,1,.116-.931,1.327,1.327,0,0,1,.372-.584,1.252,1.252,0,0,1,.559-.25,7.169,7.169,0,0,1,1.271-.071h.238a7.215,7.215,0,0,1,1.432.1,1.6,1.6,0,0,1,.693.34.957.957,0,0,1,.282.456,2.442,2.442,0,0,1,.09.738v.2a.738.738,0,0,1-.006.122h-.738v-.167a2.487,2.487,0,0,0-.045-.559.552.552,0,0,0-.135-.289.916.916,0,0,0-.488-.193,10.025,10.025,0,0,0-1.342-.058,2.272,2.272,0,0,0-1.284.231,1.231,1.231,0,0,0-.263.924,1.291,1.291,0,0,0,.173.783.921.921,0,0,0,.661.257l2.08.173a1.645,1.645,0,0,1,1.143.449,1.929,1.929,0,0,1,.327,1.265,4.137,4.137,0,0,1-.083.976,1.226,1.226,0,0,1-.931.924,6.792,6.792,0,0,1-1.483.109h-.327a6.018,6.018,0,0,1-1.3-.1,1.566,1.566,0,0,1-.636-.321,1.214,1.214,0,0,1-.366-.578,3.121,3.121,0,0,1-.116-.924v-.321Z" transform="translate(-73.65 -46.36)" fill="#55565a"/><path d="M225.59,137.007h-.61l2.343-7.537h.623Z" transform="translate(-80.554 -46.356)" fill="#55565a"/><path d="M240.486,134.012h.738v.122a3.192,3.192,0,0,0,.09.873.643.643,0,0,0,.3.4,1.424,1.424,0,0,0,.494.128c.225.026.68.039,1.374.039a4.272,4.272,0,0,0,.873-.071.878.878,0,0,0,.462-.238.578.578,0,0,0,.122-.3,3.4,3.4,0,0,0,.039-.578,1.782,1.782,0,0,0-.148-.924.806.806,0,0,0-.591-.225l-2.035-.16a1.856,1.856,0,0,1-1.265-.456,1.942,1.942,0,0,1-.353-1.3,3.08,3.08,0,0,1,.116-.931,1.328,1.328,0,0,1,.372-.584,1.252,1.252,0,0,1,.559-.25,7.169,7.169,0,0,1,1.271-.071h.238a7.216,7.216,0,0,1,1.432.1,1.6,1.6,0,0,1,.693.34.957.957,0,0,1,.282.456,2.441,2.441,0,0,1,.09.738v.2a.738.738,0,0,1-.006.122h-.738v-.167a2.488,2.488,0,0,0-.045-.559.553.553,0,0,0-.135-.289.916.916,0,0,0-.488-.193,10.026,10.026,0,0,0-1.342-.058,2.272,2.272,0,0,0-1.284.231,1.231,1.231,0,0,0-.263.924,1.291,1.291,0,0,0,.173.783.921.921,0,0,0,.661.257l2.08.173a1.645,1.645,0,0,1,1.143.449,1.929,1.929,0,0,1,.327,1.265,4.136,4.136,0,0,1-.083.976,1.226,1.226,0,0,1-.931.924,6.792,6.792,0,0,1-1.483.109h-.327a6.018,6.018,0,0,1-1.3-.1,1.566,1.566,0,0,1-.636-.321,1.214,1.214,0,0,1-.366-.578,3.122,3.122,0,0,1-.116-.924v-.321Z" transform="translate(-86.103 -46.36)" fill="#55565a"/><path d="M253.71,136.2V129.59h4.635v.7h-3.909v2.163h3.794v.674h-3.794v2.382h3.909v.693Z" transform="translate(-90.84 -46.399)" fill="#55565a"/><path d="M265.6,136.2V129.59h2.985a2.554,2.554,0,0,1,1.534.334,1.418,1.418,0,0,1,.417,1.181v1a1.381,1.381,0,0,1-.212.815.945.945,0,0,1-.642.372,1.025,1.025,0,0,1,.661.4,1.725,1.725,0,0,1,.193.924v1.592h-.764v-1.361a1.505,1.505,0,0,0-.225-.963,1.169,1.169,0,0,0-.879-.25h-2.343v2.574H265.6Zm2.837-5.906h-2.112v2.645h2.112a1.893,1.893,0,0,0,1.078-.205.879.879,0,0,0,.257-.732v-.77a.926.926,0,0,0-.244-.738A1.93,1.93,0,0,0,268.437,130.3Z" transform="translate(-95.097 -46.399)" fill="#55565a"/><path d="M277.11,129.59h.783l2.112,5.932,2.118-5.932h.777l-2.42,6.612h-.944l-2.42-6.612Z" transform="translate(-99.219 -46.399)" fill="#55565a"/><path d="M290.38,136.2V129.59h.738V136.2Z" transform="translate(-103.97 -46.399)" fill="#55565a"/><path d="M296.52,131.74a2.482,2.482,0,0,1,.488-1.765,2.387,2.387,0,0,1,1.714-.494h.77a2.612,2.612,0,0,1,1.714.43,1.846,1.846,0,0,1,.494,1.457v.289h-.757v-.18a1.353,1.353,0,0,0-.308-1.027,1.853,1.853,0,0,0-1.2-.276h-.514a3.973,3.973,0,0,0-.873.071,1.077,1.077,0,0,0-.456.244.922.922,0,0,0-.257.443,4.358,4.358,0,0,0-.071,1v1.881a4.821,4.821,0,0,0,.071,1,.954.954,0,0,0,.257.443,1,1,0,0,0,.443.244,3.591,3.591,0,0,0,.886.071h.514a1.842,1.842,0,0,0,1.22-.289,1.535,1.535,0,0,0,.3-1.1v-.193a.731.731,0,0,0-.006-.122h.751v.437a2.03,2.03,0,0,1-.475,1.534,2.594,2.594,0,0,1-1.727.43h-.77a2.336,2.336,0,0,1-1.714-.5,2.524,2.524,0,0,1-.488-1.765v-2.24Z" transform="translate(-106.168 -46.36)" fill="#55565a"/><path d="M309.36,136.2V129.59h.738V136.2Z" transform="translate(-110.766 -46.399)" fill="#55565a"/><path d="M315.51,131.736a2.378,2.378,0,0,1,.526-1.765,2.683,2.683,0,0,1,1.862-.5h.835a2.727,2.727,0,0,1,1.868.494,2.394,2.394,0,0,1,.52,1.772v2.24a2.358,2.358,0,0,1-.526,1.765,2.694,2.694,0,0,1-1.862.5H317.9a2.694,2.694,0,0,1-1.862-.5,2.4,2.4,0,0,1-.526-1.765Zm3-1.579H318.1a4.376,4.376,0,0,0-.989.077,1.314,1.314,0,0,0-.5.25.913.913,0,0,0-.276.456,4.312,4.312,0,0,0-.077.982V133.8a4.209,4.209,0,0,0,.077.976.894.894,0,0,0,.276.449,1.19,1.19,0,0,0,.5.25,4.337,4.337,0,0,0,.989.077h.411a4.376,4.376,0,0,0,.989-.077,1.269,1.269,0,0,0,.5-.25.874.874,0,0,0,.27-.437,4.223,4.223,0,0,0,.077-.989v-1.881a4.309,4.309,0,0,0-.077-.982.913.913,0,0,0-.276-.456,1.155,1.155,0,0,0-.494-.244,4.875,4.875,0,0,0-.989-.071Z" transform="translate(-112.968 -46.356)" fill="#55565a"/><path d="M328.936,134.012h.738v.122a3.191,3.191,0,0,0,.09.873.643.643,0,0,0,.3.4,1.424,1.424,0,0,0,.494.128c.225.026.68.039,1.374.039a4.272,4.272,0,0,0,.873-.071.878.878,0,0,0,.462-.238.577.577,0,0,0,.122-.3,3.392,3.392,0,0,0,.039-.578,1.781,1.781,0,0,0-.148-.924.806.806,0,0,0-.591-.225l-2.035-.16a1.856,1.856,0,0,1-1.265-.456,1.942,1.942,0,0,1-.353-1.3,3.08,3.08,0,0,1,.116-.931,1.327,1.327,0,0,1,.372-.584,1.252,1.252,0,0,1,.559-.25,7.169,7.169,0,0,1,1.271-.071h.237a7.216,7.216,0,0,1,1.432.1,1.6,1.6,0,0,1,.693.34.956.956,0,0,1,.282.456,2.441,2.441,0,0,1,.09.738v.2a.742.742,0,0,1-.006.122h-.738v-.167a2.488,2.488,0,0,0-.045-.559.553.553,0,0,0-.135-.289.916.916,0,0,0-.488-.193,10.024,10.024,0,0,0-1.342-.058,2.272,2.272,0,0,0-1.284.231,1.231,1.231,0,0,0-.263.924,1.291,1.291,0,0,0,.173.783.921.921,0,0,0,.661.257l2.08.173a1.645,1.645,0,0,1,1.143.449,1.929,1.929,0,0,1,.327,1.265,4.138,4.138,0,0,1-.083.976,1.226,1.226,0,0,1-.931.924,6.792,6.792,0,0,1-1.483.109h-.327a6.019,6.019,0,0,1-1.3-.1,1.566,1.566,0,0,1-.636-.321,1.213,1.213,0,0,1-.366-.578,3.121,3.121,0,0,1-.116-.924v-.321Z" transform="translate(-117.773 -46.36)" fill="#55565a"/><path d="M213.466,64.764c-3.64-.244-8,.417-12.313-.366a22.574,22.574,0,0,1-14.7-9.058,78.433,78.433,0,0,1-7.832-12.685,22.907,22.907,0,0,1,.95-22.276A113.232,113.232,0,0,1,186.362,9.7,22.84,22.84,0,0,1,205.435.042c6.548-.039,13.1.026,19.644-.032,1.284-.013,1.688.321,1.656,1.656-.1,3.7-.077,7.415,0,11.125.026,1.22-.359,1.592-1.573,1.586-5.559-.058-11.131.135-16.684-.077-5.765-.225-10.124,1.6-12.736,7.023-1.123,2.337-2.735,4.429-3.993,6.708a9.119,9.119,0,0,0,.353,9.578c1.534,2.587,3.178,5.11,4.712,7.691a9.972,9.972,0,0,0,9.2,5.161c6.317-.006,12.634.032,18.944-.026,1.3-.013,1.83.25,1.785,1.695-.109,3.646-.1,7.3,0,10.952.039,1.419-.475,1.746-1.8,1.714-3.589-.083-7.183-.026-11.472-.026Z" transform="translate(-63.082 -0.003)" fill="#55565a"/><path d="M298.7,64.764c-3.64-.244-8,.417-12.313-.366a22.574,22.574,0,0,1-14.7-9.058,78.435,78.435,0,0,1-7.832-12.685,22.907,22.907,0,0,1,.95-22.276A113.235,113.235,0,0,1,271.592,9.7,22.823,22.823,0,0,1,290.665.042c6.548-.039,13.1.026,19.644-.032C311.592,0,312,.331,311.965,1.666c-.1,3.7-.077,7.415,0,11.125.026,1.22-.359,1.592-1.573,1.586-5.559-.058-11.131.135-16.684-.077-5.765-.225-10.124,1.6-12.736,7.023-1.123,2.337-2.735,4.429-3.993,6.708a9.119,9.119,0,0,0,.353,9.578c1.534,2.587,3.178,5.11,4.712,7.691a9.972,9.972,0,0,0,9.2,5.161c6.317-.006,12.634.032,18.944-.026,1.3-.013,1.83.25,1.785,1.695-.109,3.646-.1,7.3,0,10.952.039,1.419-.475,1.746-1.8,1.714-3.589-.083-7.183-.026-11.472-.026Z" transform="translate(-93.598 -0.003)" fill="#55565a"/><rect width="14.38" height="65.03" transform="translate(88.853)" fill="#55565a"/><path d="M66.1,45a70.355,70.355,0,0,0-49.379,0,63.375,63.375,0,0,0,24.5-45H31.246A54.513,54.513,0,0,1,9.33,38.061L17.862,53.93a59.612,59.612,0,0,1,47.119,0l8.532-15.869A54.5,54.5,0,0,1,51.59,0H41.607A63.39,63.39,0,0,0,66.1,45Z" transform="translate(-3.341)" fill="#fdc52f"/><path d="M15.522,0A41.822,41.822,0,0,1,0,26.923l4.93,9.167A52.462,52.462,0,0,0,25.5,0Z" fill="#fdc52f"/><path d="M88.886,0H78.91A52.462,52.462,0,0,0,99.478,36.091l4.93-9.167A41.822,41.822,0,0,1,88.886,0Z" transform="translate(-28.254)" fill="#fdc52f"/><path d="M24.2,84.364l4.949,9.206a47.67,47.67,0,0,1,35.179,0l4.949-9.206a56.9,56.9,0,0,0-45.078,0Z" transform="translate(-8.665 -28.54)" fill="#fdc52f"/></svg>