<svg width="334" height="70" viewBox="0 0 334 70" fill="none" xmlns="http://www.w3.org/2000/svg">
<path d="M23.9522 8.23529V0L0 1.66535e-05V23.3333L46.5737 61.7647V70H70.5259V46.6667L23.9522 8.23529Z" fill="#F42534"/>
<path d="M23.9522 63.1373V70H0V46.6667H5.32271L23.9522 63.1373Z" fill="#F42534"/>
<path d="M46.5737 8.23531L46.5737 2.09434e-05H70.5259V23.3333H65.2032L46.5737 8.23531Z" fill="#F42534"/>
<path d="M151.298 17.5686V26.0784H141.717V52.7058H132.269V26.0784H122.689V17.5686H151.298Z" fill="white"/>
<path d="M173.786 27.1764C173.121 26.4902 172.19 26.2156 171.125 26.2156H164.738V33.2156H171.125C172.19 33.2156 173.121 32.9411 173.786 32.2549C174.452 31.5686 174.851 30.7451 174.851 29.7843C174.851 28.549 174.452 27.7254 173.786 27.1764ZM155.423 17.5686H171.657C175.25 17.5686 178.311 18.6666 180.706 21C183.101 23.3333 184.299 26.2156 184.299 29.647C184.299 31.0196 184.033 32.3921 183.634 33.6274C183.234 34.8627 182.702 35.8235 182.17 36.647C181.637 37.4705 180.972 38.0196 180.44 38.5686C179.908 39.1176 179.375 39.5294 178.976 39.6666L178.311 40.0784L185.496 52.8431H175.649L169.661 41.7254H164.738V52.8431H155.423V17.5686Z" fill="white"/>
<path d="M205.723 27.3137L202.529 37.6078H208.916L205.723 27.3137ZM200.001 45.1568L197.606 52.7058H187.493L200.533 17.5686H210.912L223.953 52.7058H213.84L211.312 45.1568H200.001Z" fill="white"/>
<path d="M271.991 42.2745C273.853 44.1961 276.116 45.1568 278.91 45.1568C281.704 45.1568 283.967 44.1961 285.83 42.2745C287.693 40.3529 288.624 38.0196 288.624 35.1372C288.624 32.2549 287.693 29.9215 285.83 28C283.967 26.0784 281.704 25.1176 278.91 25.1176C276.116 25.1176 273.853 26.0784 271.991 28C270.128 29.9215 269.196 32.2549 269.196 35.1372C269.329 38.0196 270.261 40.3529 271.991 42.2745ZM292.483 48.3137C288.757 52.0196 284.233 53.8039 278.91 53.8039C273.587 53.8039 269.063 52.0196 265.337 48.3137C261.611 44.6078 259.748 40.3529 259.748 35.1372C259.748 30.0588 261.611 25.6666 265.337 21.9608C269.063 18.2549 273.587 16.4706 278.91 16.4706C284.233 16.4706 288.757 18.2549 292.483 21.9608C296.209 25.6666 298.072 29.9215 298.072 35.1372C298.205 40.2157 296.342 44.6078 292.483 48.3137Z" fill="white"/>
<path d="M334 17.5686V52.7058H325.883L311.112 33.0784V52.7058H301.665V17.5686H309.782L324.552 37.196V17.5686H334Z" fill="white"/>
<path d="M251.631 42.8235C250.966 43.3725 250.034 43.9215 248.837 44.4705C247.24 45.2941 245.51 45.7058 243.647 45.7058C240.72 45.7058 238.191 44.745 236.328 42.6862C234.332 40.6274 233.401 38.1568 233.401 35.1372C233.401 32.1176 234.332 29.647 236.328 27.5882C238.324 25.6666 240.72 24.5686 243.647 24.5686C244.712 24.5686 245.776 24.7058 246.841 25.1176C247.905 25.3921 248.704 25.8039 249.369 26.2156C250.034 26.6274 250.7 27.0392 251.232 27.5882L257.353 21.2745C257.087 21 256.688 20.7255 256.288 20.3137C255.49 19.6274 254.426 18.9411 253.361 18.1176C252.296 17.4313 250.833 16.7451 249.103 16.3333C247.373 15.7843 245.51 15.5098 243.647 15.5098C238.058 15.5098 233.268 17.4313 229.409 21.2745C225.55 25.1176 223.554 29.647 223.554 35C223.554 40.3529 225.55 44.8823 229.409 48.7254C233.268 52.5686 238.058 54.4901 243.647 54.4901C245.643 54.4901 247.506 54.2156 249.236 53.6666C251.099 53.1176 252.43 52.5686 253.627 51.8823C254.692 51.196 255.756 50.5098 256.688 49.6862C257.087 49.4117 257.353 49.1372 257.619 48.8627L251.631 42.8235Z" fill="white"/>
<path d="M119.761 37.6078C119.229 36.3725 118.43 35.2745 117.499 34.5882C116.567 33.7647 115.503 33.2156 114.305 32.6666C113.108 32.1176 112.043 31.7058 110.845 31.2941C109.648 30.8823 108.716 30.6078 107.652 30.3333C106.72 30.0588 105.922 29.647 105.39 29.098C104.857 28.6862 104.458 28.1372 104.458 27.4509C104.458 26.6274 104.857 25.9411 105.523 25.3921C106.188 24.8431 107.12 24.4313 108.184 24.4313C109.249 24.4313 110.18 24.7058 111.245 25.2549C112.176 25.8039 112.841 26.2156 113.241 26.4902C113.374 26.6274 113.507 26.7647 113.64 26.9019L119.229 21.2745L118.963 21C118.696 20.5882 118.297 20.1764 117.499 19.7647C116.834 19.2156 116.035 18.8039 115.104 18.2549C114.172 17.7058 113.108 17.2941 111.644 17.0196C110.18 16.6078 108.716 16.4706 107.12 16.4706C103.261 16.4706 100.067 17.5686 97.6718 19.7647C95.1435 21.9607 93.9459 24.4313 93.9459 27.4509C93.9459 29.098 94.212 30.6078 94.8773 31.8431C95.4096 33.0784 96.208 34.1764 97.1395 34.8627C98.071 35.6862 99.1355 36.2353 100.333 36.7843C101.531 37.3333 102.595 37.7451 103.793 38.1568C104.99 38.5686 106.055 38.8431 106.986 39.1176C107.918 39.3921 108.716 39.8039 109.249 40.3529C109.781 40.7647 110.18 41.4509 110.18 42C110.18 43.098 109.781 43.9215 108.983 44.6078C108.184 45.2941 107.12 45.7058 105.789 45.7058C104.99 45.7058 104.192 45.5686 103.261 45.2941C102.462 45.0196 101.797 44.7451 101.265 44.3333C100.732 44.0588 100.2 43.647 99.6678 43.098C99.1355 42.6862 98.8694 42.4117 98.7363 42.1372L93.1475 47.7647L93.5467 48.1764C93.9459 48.5882 94.4781 49.1372 95.2765 49.6862C96.0749 50.2352 97.0064 50.9215 97.9379 51.4705C99.0024 52.0196 100.333 52.5686 101.93 52.9803C103.527 53.3921 105.124 53.6666 106.853 53.6666C111.112 53.6666 114.438 52.5686 116.967 50.3725C119.495 48.1764 120.826 45.4313 120.826 42.1372C120.692 40.3529 120.426 38.8431 119.761 37.6078Z" fill="white"/>
</svg>
