<svg width="214" height="53" viewBox="0 0 214 53" fill="none" xmlns="http://www.w3.org/2000/svg">
<path fill-rule="evenodd" clip-rule="evenodd" d="M51.9537 4.22117C51.0542 5.20722 52.5044 7.14785 52.9214 8.14963C53.6583 9.90931 53.7055 12.1384 53.4013 14.0869C53.0499 16.3422 51.5053 18.8493 49.8951 20.6247C48.2481 22.4421 45.8722 24.367 43.4962 25.458C39.0354 27.5087 34.3018 29.0586 26.9012 27.0813C25.4851 26.701 24.3548 26.2027 23.1065 25.5025C21.9683 24.8653 20.6388 24.2149 19.2934 25.041C16.8571 26.5332 17.5469 29.3314 18.8161 31.251C20.0513 33.1208 22.1336 34.7363 24.4177 35.8377C26.7124 36.9418 29.1985 37.7547 31.7502 38.3133C37.559 39.5826 43.8345 39.5013 49.4781 37.7049C54.8017 36.0082 59.5143 32.7432 62.045 28.3768C64.0223 24.9597 64.3029 21.2174 63.7522 17.3362C63.3012 14.1787 62.0555 10.9163 59.8946 8.31223C55.8087 3.38722 52.6906 3.41082 51.9537 4.22117Z" fill="#057138"/>
<path fill-rule="evenodd" clip-rule="evenodd" d="M1.11055 19.4577C2.59487 19.623 3.76974 18.6002 4.75317 17.9577C8.41152 15.5765 14.2387 12.7363 18.9853 11.5116C23.7346 10.2896 29.2602 9.87784 30.5006 9.9198C39.4354 10.2424 40.8882 14.8474 41.0534 16.6517C41.1374 17.5564 40.9459 18.49 40.9721 19.3974C41.0298 20.8975 42.4591 21.8389 44.1716 21.2935C46.8622 20.4385 48.698 17.9105 49.899 15.8177C50.8772 14.1131 51.4856 12.2197 51.3388 10.3105C50.6517 1.36791 36.868 -0.0141315 28.8668 1.18958C18.5185 2.74471 9.19826 8.03948 2.77058 14.9759C0.774876 17.129 -0.651749 19.2584 1.11055 19.4577Z" fill="#057138"/>
<path fill-rule="evenodd" clip-rule="evenodd" d="M48.6401 42.0084C45.2833 42.2286 41.9842 42.8659 38.5934 42.8816C35.2025 42.8974 25.9006 42.4122 20.2492 38.5152C18.0122 36.9732 16.4597 34.9827 15.7202 32.6278C14.4981 28.7308 16.0034 23.533 21.626 18.9909C22.5438 18.2487 23.6453 17.5695 24.6602 16.9218C25.5676 16.3422 27.0388 15.7889 27.3718 14.7635C28.3316 11.8001 21.9512 13.3054 20.6793 13.7328C11.4193 16.5441 1.98103 23.3127 0.252823 31.8961C-0.688645 36.5851 1.0553 41.6281 4.55106 45.3258C7.38857 48.3285 11.6317 50.1538 15.9378 51.1477C22.4416 52.6503 29.4986 52.451 35.984 50.9746C39.3906 50.1983 42.6871 49.0444 45.7055 47.4919C47.1925 46.7262 48.5798 45.8503 49.9277 44.9324C51.7372 43.7051 50.9269 41.8484 48.6375 42.0084H48.6401Z" fill="#1E437B"/>
<path d="M192.289 34.2746L200.455 23.0793L193.099 12.1042H198.908L203.146 19.5154L208.079 12.1042H213.995L205.727 22.9482L213.862 34.2746H207.985L202.97 26.5777L198.132 34.2746H192.289Z" fill="#1E437B"/>
<path d="M191.681 12.1042V34.2746H186.953V12.1042H191.681Z" fill="#1E437B"/>
<path fill-rule="evenodd" clip-rule="evenodd" d="M85.9637 13.0065C84.8833 12.4925 83.1288 12.0073 80.6952 12.0073C75.1591 12.0073 71.2097 14.7767 70.3679 18.3721C69.7018 21.2279 71.6214 23.2813 75.1565 24.708C77.7449 25.7622 78.7572 26.7063 78.3926 28.2745C78.0124 29.9005 76.3183 31.015 73.583 31.015C71.5165 31.015 69.5077 30.4748 68.3328 29.7877L66.5391 33.3254C67.5933 33.9522 70.0191 34.558 72.5524 34.558C78.5211 34.558 82.5466 31.7572 83.4409 27.931C84.1149 25.0463 82.7564 23.0217 79.0194 21.4509C76.1714 20.2235 75.0726 19.5102 75.4397 17.9394C75.7256 16.712 77.1758 15.5136 79.7747 15.5136C81.8753 15.5136 83.315 16.0564 84.1227 16.455L85.9663 13.0012L85.9637 13.0065ZM106.763 12.322L103.757 25.1669C102.255 31.5893 97.9851 34.5894 92.1816 34.5894C86.3781 34.5894 83.8316 31.6444 85.3422 25.1931L88.3528 12.3194H93.2883L90.1912 25.5629C89.289 29.4153 90.5976 31.1016 93.1309 31.1016C95.798 31.1016 97.8121 29.473 98.7273 25.5629L101.824 12.3194H106.76L106.763 12.322ZM104.124 34.2774H109.026L110.951 26.0533C111.431 26.1398 112.023 26.1661 112.723 26.1661C116.557 26.1661 122.741 24.8234 124.15 18.8022C124.624 16.775 124.105 15.0048 122.83 13.8929C121.477 12.6944 119.169 12.1516 115.936 12.1516C113.101 12.1516 110.854 12.3509 109.194 12.6079L104.124 34.2774ZM113.395 15.6054C113.848 15.5188 114.57 15.4323 115.569 15.4323C118.304 15.4323 119.752 16.6596 119.204 19.0015C118.648 21.3696 116.5 22.8539 113.432 22.8539C112.697 22.8539 112.17 22.825 111.724 22.7411L113.395 15.6054ZM136.863 30.7344L136.035 34.2774H121.695L126.83 12.322H140.637L139.808 15.8624H130.937L129.693 21.1729H138.064L137.257 24.6267H128.886L127.456 30.737H136.861L136.863 30.7344ZM151.814 23.8268C154.402 23.0296 156.865 21.0575 157.492 18.3747C158.868 12.4951 152.412 12.1516 149.176 12.1516C146.674 12.1516 144.227 12.3509 142.465 12.6079L137.396 34.2774H142.3L144.382 25.3662H146.05C148.384 25.3662 149.213 26.2526 149.218 29.077C149.197 31.7336 149.383 33.6454 149.603 34.2774H154.673C154.366 33.4434 154.313 30.8183 154.187 28.2195C154.109 25.993 153.456 24.5087 151.793 23.9081L151.814 23.8242V23.8268ZM145.116 22.2271L146.679 15.5477C147.107 15.4323 147.888 15.3772 148.987 15.3772C150.789 15.3772 153.128 15.9174 152.467 18.7445C151.979 20.8267 149.952 22.2271 147.151 22.2271H145.116Z" fill="#057138"/>
<path d="M181.432 34.2746L178.956 19.8301L174.406 34.2746H169.636L165.16 19.8589L162.723 34.2746H157.602L162.183 12.1042H167.205L171.826 27.11L176.664 12.1042H181.757L186.344 34.2746H181.432Z" fill="#1E437B"/>
<path d="M78.5706 4.5621L78.3032 5.55077C77.8101 5.41965 77.304 5.35409 76.7847 5.35409C75.9324 5.35409 75.2611 5.56126 74.7733 5.97561C74.2829 6.38734 74.0233 6.87512 73.9997 7.43371C73.9787 7.87166 74.1256 8.21783 74.4376 8.47745C74.7497 8.73708 75.185 8.8682 75.7331 8.8682C76.4097 8.8682 77.186 8.6584 78.0566 8.24143L77.8075 9.43203C77.0444 9.71264 76.2996 9.85425 75.5705 9.85425C74.6553 9.85425 73.9263 9.6261 73.3782 9.17503C72.8327 8.72134 72.5783 8.13129 72.6124 7.40486C72.6544 6.51322 73.0687 5.78417 73.8607 5.2151C74.6501 4.64602 75.6518 4.36279 76.866 4.36279C77.3958 4.36279 77.9622 4.42573 78.568 4.55948L78.5706 4.5621ZM82.2998 4.36542C83.215 4.36542 83.952 4.59095 84.5079 5.04726C85.0639 5.50357 85.3261 6.08838 85.292 6.80694C85.2501 7.70645 84.8777 8.44074 84.1696 9.00719C83.4642 9.57103 82.5778 9.85688 81.5157 9.85688C80.5926 9.85688 79.8452 9.62085 79.2656 9.15405C78.6887 8.68725 78.4159 8.09195 78.45 7.36815C78.4894 6.50798 78.8749 5.79466 79.6039 5.22296C80.333 4.65126 81.2298 4.36542 82.2972 4.36542H82.2998ZM81.5708 8.86558C82.1949 8.86558 82.7325 8.67152 83.1862 8.28601C83.6373 7.90051 83.8759 7.43109 83.9021 6.88037C83.9231 6.43979 83.7684 6.07527 83.4406 5.78417C83.1128 5.4957 82.6853 5.35147 82.1634 5.35147C81.555 5.35147 81.0227 5.54291 80.5664 5.92841C80.1074 6.31391 79.8662 6.77547 79.8425 7.31045C79.8216 7.76939 79.9711 8.13915 80.2936 8.43025C80.6162 8.71872 81.0436 8.86296 81.5734 8.86296L81.5708 8.86558ZM92.2888 4.4336L91.1585 9.78345H89.8866L87.4451 6.15919L86.6846 9.78345H85.3445L86.4827 4.4336H87.8227L90.2223 7.92673L90.9487 4.4336H92.2914H92.2888ZM98.2287 4.5621L97.9612 5.55077C97.4682 5.41965 96.9621 5.35409 96.4428 5.35409C95.5905 5.35409 94.9191 5.56126 94.4314 5.97561C93.941 6.38734 93.6813 6.87512 93.6577 7.43371C93.6368 7.87166 93.7836 8.21783 94.0957 8.47745C94.4104 8.73708 94.8431 8.8682 95.3938 8.8682C96.0704 8.8682 96.8467 8.6584 97.7173 8.24143L97.4682 9.43203C96.7051 9.71264 95.9603 9.85425 95.2312 9.85425C94.316 9.85425 93.5869 9.6261 93.0388 9.17503C92.4934 8.72134 92.239 8.13129 92.2731 7.40486C92.315 6.51322 92.7294 5.78417 93.5214 5.2151C94.3107 4.64602 95.3125 4.36279 96.5293 4.36279C97.0591 4.36279 97.6255 4.42573 98.2313 4.55948L98.2287 4.5621ZM98.9709 4.4336H101.132C101.808 4.4336 102.322 4.59357 102.679 4.91089C103.038 5.22821 103.204 5.60585 103.185 6.04118C103.169 6.39259 103.036 6.69679 102.779 6.94855C102.524 7.20031 102.17 7.36553 101.717 7.43895V7.45469C101.966 7.53861 102.178 7.74841 102.351 8.08408L103.243 9.78345H101.761L101.21 8.70036C100.964 8.22045 100.773 7.91887 100.628 7.80086C100.487 7.68284 100.248 7.62253 99.9176 7.62253H99.6317L99.1807 9.78607H97.8406L98.9683 4.43622L98.9709 4.4336ZM100.122 5.33049L99.8153 6.78858H100.479C100.885 6.78858 101.205 6.71515 101.436 6.56829C101.669 6.42143 101.79 6.23524 101.801 6.00971C101.811 5.79991 101.724 5.63207 101.544 5.51144C101.363 5.38818 101.106 5.33049 100.775 5.33049H100.122ZM108.341 4.4336L108.15 5.33049H105.553L105.281 6.58927H107.565L107.376 7.48354H105.089L104.795 8.88918H108.068L107.877 9.78345H103.261L104.399 4.4336H108.338H108.341ZM114.131 4.4336L113.94 5.33049H111.889L110.942 9.78345H109.602L110.549 5.33049H108.548L108.74 4.4336H114.131ZM117.053 4.36542C117.968 4.36542 118.702 4.59095 119.261 5.04726C119.817 5.50357 120.079 6.08838 120.045 6.80694C120.003 7.70645 119.631 8.44074 118.923 9.00719C118.217 9.57103 117.331 9.85688 116.269 9.85688C115.346 9.85688 114.598 9.62085 114.019 9.15405C113.442 8.68725 113.169 8.09195 113.203 7.36815C113.242 6.50798 113.628 5.79466 114.357 5.22296C115.086 4.65126 115.985 4.36542 117.05 4.36542H117.053ZM116.324 8.86558C116.948 8.86558 117.486 8.67152 117.939 8.28601C118.393 7.90051 118.629 7.43109 118.655 6.88037C118.676 6.43979 118.521 6.07527 118.194 5.78417C117.866 5.4957 117.438 5.35147 116.916 5.35147C116.308 5.35147 115.776 5.54291 115.319 5.92841C114.86 6.31391 114.622 6.77547 114.596 7.31045C114.575 7.76939 114.724 8.13915 115.047 8.43025C115.369 8.71872 115.797 8.86296 116.326 8.86296L116.324 8.86558ZM124.634 4.78501L124.406 5.72648C124.186 5.59011 123.932 5.47734 123.638 5.38818C123.347 5.29902 123.09 5.25443 122.867 5.25443C122.615 5.25443 122.4 5.31213 122.227 5.42227C122.051 5.53242 121.962 5.67403 121.954 5.84449C121.949 5.94677 121.991 6.04904 122.083 6.15132C122.172 6.2536 122.463 6.43455 122.956 6.69155C123.449 6.94593 123.777 7.19769 123.939 7.4442C124.102 7.69071 124.178 7.94771 124.165 8.21258C124.144 8.68463 123.932 9.07538 123.533 9.38745C123.132 9.6969 122.607 9.85425 121.954 9.85425C121.126 9.85425 120.42 9.68379 119.833 9.34287L120.079 8.41189C120.344 8.57449 120.638 8.70561 120.966 8.80789C121.293 8.91016 121.584 8.95999 121.836 8.95999C122.112 8.95999 122.334 8.90754 122.505 8.7974C122.675 8.68987 122.765 8.54564 122.772 8.36993C122.778 8.24668 122.733 8.12342 122.628 8.00016C122.529 7.87428 122.23 7.68022 121.737 7.41535C121.238 7.14786 120.918 6.90397 120.771 6.67844C120.622 6.45553 120.551 6.22213 120.562 5.98348C120.583 5.52193 120.811 5.13905 121.246 4.82959C121.684 4.52014 122.219 4.36542 122.854 4.36542C123.488 4.36542 124.084 4.50441 124.637 4.78763L124.634 4.78501Z" fill="#057138"/>
</svg>
